<svg id="Grupo_20936" data-name="Grupo 20936" xmlns="http://www.w3.org/2000/svg" width="186.685" height="56.557" viewBox="0 0 186.685 56.557">
  <path id="Caminho_17224" data-name="Caminho 17224" d="M175.213,56.561H11.472A11.472,11.472,0,0,1,0,45.089V11.476A11.472,11.472,0,0,1,11.472,0H175.213a11.472,11.472,0,0,1,11.472,11.472V45.089a11.472,11.472,0,0,1-11.472,11.472" transform="translate(0 -0.004)"/>
  <path id="Caminho_17225" data-name="Caminho 17225" d="M369.462,263.866a4.053,4.053,0,0,1,0,7.047l-7.3,4.145-7.8-7.724,7.825-7.616Z" transform="translate(-326.205 -239.248)" fill="#fbbc04"/>
  <path id="Caminho_17226" data-name="Caminho 17226" d="M187.362,141.2l-7.825,7.616-15.086-14.94a4.058,4.058,0,0,1,5.9-2.367Z" transform="translate(-151.387 -120.732)" fill="#34a853"/>
  <path id="Caminho_17227" data-name="Caminho 17227" d="M178.783,355.591l7.8,7.723-16.994,9.647a4.057,4.057,0,0,1-5.956-2.623Z" transform="translate(-150.633 -327.504)" fill="#ea4335"/>
  <path id="Caminho_17228" data-name="Caminho 17228" d="M177.644,182.471l-15.151,14.748a4.137,4.137,0,0,1-.1-.9v-27.63a4.1,4.1,0,0,1,.163-1.155Z" transform="translate(-149.494 -154.384)" fill="#4285f4"/>
  <path id="Caminho_17241" data-name="Caminho 17241" d="M705.834,321.3v-1.868l6.745-.011v5.908a11.913,11.913,0,0,1-3.2,1.863,9.505,9.505,0,0,1-3.389.624,9.041,9.041,0,0,1-4.263-1,6.64,6.64,0,0,1-2.895-2.905,9.148,9.148,0,0,1-.977-4.247,9.853,9.853,0,0,1,.972-4.339,6.465,6.465,0,0,1,2.8-2.992,8.765,8.765,0,0,1,4.2-.977,8.329,8.329,0,0,1,3.123.559,5.179,5.179,0,0,1,2.189,1.559,6.919,6.919,0,0,1,1.206,2.607l-1.9.521a5.888,5.888,0,0,0-.891-1.912,3.655,3.655,0,0,0-1.521-1.113,5.577,5.577,0,0,0-2.194-.418,6.461,6.461,0,0,0-2.5.44,4.66,4.66,0,0,0-1.7,1.157,5.514,5.514,0,0,0-1,1.575,8.33,8.33,0,0,0-.608,3.2,7.774,7.774,0,0,0,.733,3.562,4.691,4.691,0,0,0,2.134,2.129,6.607,6.607,0,0,0,2.976.7,7.07,7.07,0,0,0,2.672-.527,6.9,6.9,0,0,0,1.977-1.124V321.3Z" transform="translate(-642.414 -286.779)" fill="#fff"/>
  <path id="Caminho_17242" data-name="Caminho 17242" d="M705.834,321.3v-1.868l6.745-.011v5.908a11.913,11.913,0,0,1-3.2,1.863,9.505,9.505,0,0,1-3.389.624,9.041,9.041,0,0,1-4.263-1,6.64,6.64,0,0,1-2.895-2.905,9.148,9.148,0,0,1-.977-4.247,9.853,9.853,0,0,1,.972-4.339,6.465,6.465,0,0,1,2.8-2.992,8.765,8.765,0,0,1,4.2-.977,8.329,8.329,0,0,1,3.123.559,5.179,5.179,0,0,1,2.189,1.559,6.919,6.919,0,0,1,1.206,2.607l-1.9.521a5.888,5.888,0,0,0-.891-1.912,3.655,3.655,0,0,0-1.521-1.113,5.577,5.577,0,0,0-2.194-.418,6.461,6.461,0,0,0-2.5.44,4.66,4.66,0,0,0-1.7,1.157,5.514,5.514,0,0,0-1,1.575,8.33,8.33,0,0,0-.608,3.2,7.774,7.774,0,0,0,.733,3.562,4.691,4.691,0,0,0,2.134,2.129,6.607,6.607,0,0,0,2.976.7,7.07,7.07,0,0,0,2.672-.527,6.9,6.9,0,0,0,1.977-1.124V321.3Z" transform="translate(-642.414 -286.779)" fill="none"/>
  <path id="Caminho_17243" data-name="Caminho 17243" d="M910.038,372.75A5.945,5.945,0,0,1,911.819,368a5.367,5.367,0,0,1,3.628-1.282,5.175,5.175,0,0,1,3.888,1.559,5.93,5.93,0,0,1,1.51,4.306,7.628,7.628,0,0,1-.668,3.5,4.728,4.728,0,0,1-1.944,1.982,5.662,5.662,0,0,1-2.786.706,5.184,5.184,0,0,1-3.915-1.553,6.2,6.2,0,0,1-1.493-4.475m2.009,0a4.912,4.912,0,0,0,.967,3.318,3.219,3.219,0,0,0,4.855-.005,5.029,5.029,0,0,0,.967-3.378,4.766,4.766,0,0,0-.972-3.242,3.223,3.223,0,0,0-4.849-.005,4.89,4.89,0,0,0-.967,3.313" transform="translate(-837.744 -337.751)" fill="#fff"/>
  <path id="Caminho_17244" data-name="Caminho 17244" d="M910.038,372.75A5.945,5.945,0,0,1,911.819,368a5.367,5.367,0,0,1,3.628-1.282,5.175,5.175,0,0,1,3.888,1.559,5.93,5.93,0,0,1,1.51,4.306,7.628,7.628,0,0,1-.668,3.5,4.728,4.728,0,0,1-1.944,1.982,5.662,5.662,0,0,1-2.786.706,5.184,5.184,0,0,1-3.915-1.553A6.2,6.2,0,0,1,910.038,372.75Zm2.009,0a4.912,4.912,0,0,0,.967,3.318,3.219,3.219,0,0,0,4.855-.005,5.029,5.029,0,0,0,.967-3.378,4.766,4.766,0,0,0-.972-3.242,3.223,3.223,0,0,0-4.849-.005A4.89,4.89,0,0,0,912.047,372.75Z" transform="translate(-837.744 -337.751)" fill="none"/>
  <path id="Caminho_17245" data-name="Caminho 17245" d="M1065.761,372.75a5.945,5.945,0,0,1,1.781-4.746,5.367,5.367,0,0,1,3.628-1.282,5.175,5.175,0,0,1,3.888,1.559,5.93,5.93,0,0,1,1.51,4.306,7.63,7.63,0,0,1-.668,3.5,4.727,4.727,0,0,1-1.944,1.982,5.662,5.662,0,0,1-2.786.706,5.184,5.184,0,0,1-3.915-1.553,6.2,6.2,0,0,1-1.493-4.475m2.009,0a4.912,4.912,0,0,0,.967,3.318,3.219,3.219,0,0,0,4.855-.005,5.03,5.03,0,0,0,.967-3.378,4.767,4.767,0,0,0-.972-3.242,3.223,3.223,0,0,0-4.849-.005,4.89,4.89,0,0,0-.967,3.313" transform="translate(-981.096 -337.751)" fill="#fff"/>
  <path id="Caminho_17246" data-name="Caminho 17246" d="M1065.761,372.75a5.945,5.945,0,0,1,1.781-4.746,5.367,5.367,0,0,1,3.628-1.282,5.175,5.175,0,0,1,3.888,1.559,5.93,5.93,0,0,1,1.51,4.306,7.63,7.63,0,0,1-.668,3.5,4.727,4.727,0,0,1-1.944,1.982,5.662,5.662,0,0,1-2.786.706,5.184,5.184,0,0,1-3.915-1.553A6.2,6.2,0,0,1,1065.761,372.75Zm2.009,0a4.912,4.912,0,0,0,.967,3.318,3.219,3.219,0,0,0,4.855-.005,5.03,5.03,0,0,0,.967-3.378,4.767,4.767,0,0,0-.972-3.242,3.223,3.223,0,0,0-4.849-.005A4.89,4.89,0,0,0,1067.77,372.75Z" transform="translate(-981.096 -337.751)" fill="none"/>
  <path id="Caminho_17247" data-name="Caminho 17247" d="M1221.6,379.474l1.9.282a1.811,1.811,0,0,0,.662,1.282,3.254,3.254,0,0,0,1.988.543,3.491,3.491,0,0,0,2.1-.543,2.673,2.673,0,0,0,1-1.521,12.507,12.507,0,0,0,.141-2.509,4.022,4.022,0,0,1-3.193,1.51,4.353,4.353,0,0,1-3.682-1.716,6.609,6.609,0,0,1-1.3-4.116,7.658,7.658,0,0,1,.6-3.046,4.778,4.778,0,0,1,1.732-2.156,4.678,4.678,0,0,1,2.666-.76,4.135,4.135,0,0,1,3.367,1.651v-1.39h1.8v9.97a9.46,9.46,0,0,1-.548,3.818,4.011,4.011,0,0,1-1.738,1.776,6.022,6.022,0,0,1-2.927.652,5.519,5.519,0,0,1-3.334-.929,3.14,3.14,0,0,1-1.227-2.8m1.618-6.929a5,5,0,0,0,.9,3.313,2.974,2.974,0,0,0,4.518.006,4.842,4.842,0,0,0,.912-3.253,4.73,4.73,0,0,0-.939-3.193,2.905,2.905,0,0,0-2.265-1.075,2.822,2.822,0,0,0-2.216,1.059,4.7,4.7,0,0,0-.912,3.144" transform="translate(-1124.197 -337.752)" fill="#fff"/>
  <path id="Caminho_17248" data-name="Caminho 17248" d="M1221.6,379.474l1.9.282a1.811,1.811,0,0,0,.662,1.282,3.254,3.254,0,0,0,1.988.543,3.491,3.491,0,0,0,2.1-.543,2.673,2.673,0,0,0,1-1.521,12.507,12.507,0,0,0,.141-2.509,4.022,4.022,0,0,1-3.193,1.51,4.353,4.353,0,0,1-3.682-1.716,6.609,6.609,0,0,1-1.3-4.116,7.658,7.658,0,0,1,.6-3.046,4.778,4.778,0,0,1,1.732-2.156,4.678,4.678,0,0,1,2.666-.76,4.135,4.135,0,0,1,3.367,1.651v-1.39h1.8v9.97a9.46,9.46,0,0,1-.548,3.818,4.011,4.011,0,0,1-1.738,1.776,6.022,6.022,0,0,1-2.927.652,5.519,5.519,0,0,1-3.334-.929A3.14,3.14,0,0,1,1221.6,379.474Zm1.618-6.929a5,5,0,0,0,.9,3.313,2.974,2.974,0,0,0,4.518.006,4.842,4.842,0,0,0,.912-3.253,4.73,4.73,0,0,0-.939-3.193,2.905,2.905,0,0,0-2.265-1.075,2.822,2.822,0,0,0-2.216,1.059A4.7,4.7,0,0,0,1223.219,372.544Z" transform="translate(-1124.197 -337.752)" fill="none"/>
  <rect id="Retângulo_6307" data-name="Retângulo 6307" width="1.955" height="15.922" transform="translate(110.09 24.844)" fill="#fff"/>
  <rect id="Retângulo_6308" data-name="Retângulo 6308" width="1.955" height="15.922" transform="translate(110.09 24.844)" fill="none"/>
  <path id="Caminho_17249" data-name="Caminho 17249" d="M1448.917,374.8l2.02.25a4.929,4.929,0,0,1-1.771,2.748,6,6,0,0,1-7.315-.581,6.091,6.091,0,0,1-1.482-4.372,6.373,6.373,0,0,1,1.5-4.518,5.074,5.074,0,0,1,3.888-1.608,4.931,4.931,0,0,1,3.78,1.575,6.257,6.257,0,0,1,1.466,4.431q0,.174-.011.521h-8.6a4.431,4.431,0,0,0,1.075,2.911,3.2,3.2,0,0,0,2.411,1.01,2.991,2.991,0,0,0,1.835-.565,3.748,3.748,0,0,0,1.206-1.8m-6.419-3.161h6.44a3.907,3.907,0,0,0-.739-2.183,3,3,0,0,0-2.422-1.13,3.106,3.106,0,0,0-2.265.9,3.567,3.567,0,0,0-1.015,2.411" transform="translate(-1325.946 -337.751)" fill="#fff"/>
  <path id="Caminho_17250" data-name="Caminho 17250" d="M1448.917,374.8l2.02.25a4.929,4.929,0,0,1-1.771,2.748,6,6,0,0,1-7.315-.581,6.091,6.091,0,0,1-1.482-4.372,6.373,6.373,0,0,1,1.5-4.518,5.074,5.074,0,0,1,3.888-1.608,4.931,4.931,0,0,1,3.78,1.575,6.257,6.257,0,0,1,1.466,4.431q0,.174-.011.521h-8.6a4.431,4.431,0,0,0,1.075,2.911,3.2,3.2,0,0,0,2.411,1.01,2.991,2.991,0,0,0,1.835-.565A3.748,3.748,0,0,0,1448.917,374.8Zm-6.419-3.161h6.44a3.907,3.907,0,0,0-.739-2.183,3,3,0,0,0-2.422-1.13,3.106,3.106,0,0,0-2.265.9A3.567,3.567,0,0,0,1442.5,371.642Z" transform="translate(-1325.946 -337.751)" fill="none"/>
  <path id="Caminho_17251" data-name="Caminho 17251" d="M1685.234,330.691V314.769h6.006a14.516,14.516,0,0,1,2.422.152,4.8,4.8,0,0,1,1.966.744,3.907,3.907,0,0,1,1.276,1.537,5.182,5.182,0,0,1-.809,5.61q-1.293,1.407-4.67,1.406h-4.084v6.473Zm2.107-8.352h4.116a4.365,4.365,0,0,0,2.9-.76,2.709,2.709,0,0,0,.858-2.14,2.878,2.878,0,0,0-.505-1.711,2.362,2.362,0,0,0-1.33-.939,9.007,9.007,0,0,0-1.966-.141h-4.073Z" transform="translate(-1551.358 -289.925)" fill="#fff"/>
  <path id="Caminho_17252" data-name="Caminho 17252" d="M1685.234,330.691V314.769h6.006a14.516,14.516,0,0,1,2.422.152,4.8,4.8,0,0,1,1.966.744,3.907,3.907,0,0,1,1.276,1.537,5.182,5.182,0,0,1-.809,5.61q-1.293,1.407-4.67,1.406h-4.084v6.473Zm2.107-8.352h4.116a4.365,4.365,0,0,0,2.9-.76,2.709,2.709,0,0,0,.858-2.14,2.878,2.878,0,0,0-.505-1.711,2.362,2.362,0,0,0-1.33-.939,9.007,9.007,0,0,0-1.966-.141h-4.073Z" transform="translate(-1551.358 -289.925)" fill="none"/>
  <rect id="Retângulo_6309" data-name="Retângulo 6309" width="1.955" height="15.922" transform="translate(148.419 24.844)" fill="#fff"/>
  <rect id="Retângulo_6310" data-name="Retângulo 6310" width="1.955" height="15.922" transform="translate(148.419 24.844)" fill="none"/>
  <path id="Caminho_17253" data-name="Caminho 17253" d="M1930.9,377.1a7.28,7.28,0,0,1-2.091,1.3,6.041,6.041,0,0,1-2.156.38,4.194,4.194,0,0,1-2.922-.929,3.065,3.065,0,0,1-1.021-2.373,3.157,3.157,0,0,1,.385-1.548,3.191,3.191,0,0,1,1.01-1.124,4.751,4.751,0,0,1,1.406-.641,13.98,13.98,0,0,1,1.738-.293,17.868,17.868,0,0,0,3.486-.673q.011-.4.011-.51A2.159,2.159,0,0,0,1930.2,369a3.272,3.272,0,0,0-2.226-.662,3.452,3.452,0,0,0-2.036.483,2.952,2.952,0,0,0-.972,1.711l-1.912-.261a4.737,4.737,0,0,1,.858-1.982,3.76,3.76,0,0,1,1.727-1.162,7.7,7.7,0,0,1,2.617-.407,6.929,6.929,0,0,1,2.4.348,3.164,3.164,0,0,1,1.358.874,3.076,3.076,0,0,1,.608,1.33,11,11,0,0,1,.1,1.8v2.607a27.634,27.634,0,0,0,.125,3.448,4.342,4.342,0,0,0,.494,1.385h-2.042a4.14,4.14,0,0,1-.391-1.423m-.163-4.366a14.34,14.34,0,0,1-3.193.739,7.388,7.388,0,0,0-1.705.391,1.7,1.7,0,0,0-.771.635,1.728,1.728,0,0,0,.32,2.232,2.547,2.547,0,0,0,1.732.521,4.031,4.031,0,0,0,2.009-.494,3.044,3.044,0,0,0,1.292-1.352,4.723,4.723,0,0,0,.315-1.955Z" transform="translate(-1769.973 -337.752)" fill="#fff"/>
  <path id="Caminho_17254" data-name="Caminho 17254" d="M1930.9,377.1a7.28,7.28,0,0,1-2.091,1.3,6.041,6.041,0,0,1-2.156.38,4.194,4.194,0,0,1-2.922-.929,3.065,3.065,0,0,1-1.021-2.373,3.157,3.157,0,0,1,.385-1.548,3.191,3.191,0,0,1,1.01-1.124,4.751,4.751,0,0,1,1.406-.641,13.98,13.98,0,0,1,1.738-.293,17.868,17.868,0,0,0,3.486-.673q.011-.4.011-.51A2.159,2.159,0,0,0,1930.2,369a3.272,3.272,0,0,0-2.226-.662,3.452,3.452,0,0,0-2.036.483,2.952,2.952,0,0,0-.972,1.711l-1.912-.261a4.737,4.737,0,0,1,.858-1.982,3.76,3.76,0,0,1,1.727-1.162,7.7,7.7,0,0,1,2.617-.407,6.929,6.929,0,0,1,2.4.348,3.164,3.164,0,0,1,1.358.874,3.076,3.076,0,0,1,.608,1.33,11,11,0,0,1,.1,1.8v2.607a27.634,27.634,0,0,0,.125,3.448,4.342,4.342,0,0,0,.494,1.385h-2.042A4.14,4.14,0,0,1,1930.9,377.1Zm-.163-4.366a14.34,14.34,0,0,1-3.193.739,7.388,7.388,0,0,0-1.705.391,1.7,1.7,0,0,0-.771.635,1.728,1.728,0,0,0,.32,2.232,2.547,2.547,0,0,0,1.732.521,4.031,4.031,0,0,0,2.009-.494,3.044,3.044,0,0,0,1.292-1.352,4.723,4.723,0,0,0,.315-1.955Z" transform="translate(-1769.973 -337.752)" fill="none"/>
  <path id="Caminho_17255" data-name="Caminho 17255" d="M2073.852,385.98l-.217-1.835a4.359,4.359,0,0,0,1.119.174,2.148,2.148,0,0,0,1.043-.217,1.778,1.778,0,0,0,.641-.608,9.575,9.575,0,0,0,.6-1.455q.054-.163.174-.478L2072.831,370h2.107l2.4,6.68q.467,1.271.836,2.672a26.175,26.175,0,0,1,.8-2.628l2.465-6.723h1.955l-4.388,11.73a23.11,23.11,0,0,1-1.1,2.617,3.865,3.865,0,0,1-1.195,1.417,2.823,2.823,0,0,1-1.607.451,3.918,3.918,0,0,1-1.26-.239" transform="translate(-1908.164 -340.449)" fill="#fff"/>
  <text id="Baixar_na" data-name="Baixar na" transform="translate(53.343 19.488)" fill="#fff" font-size="12" font-family="OpenSans, Open Sans"><tspan x="0" y="0">Baixar na</tspan></text>
</svg>
