<svg id="Grupo_20935" data-name="Grupo 20935" xmlns="http://www.w3.org/2000/svg" width="186.685" height="56.557" viewBox="0 0 186.685 56.557">
  <path id="Caminho_17293" data-name="Caminho 17293" d="M175.213,1043.5H11.472A11.472,11.472,0,0,1,0,1032.031V998.418a11.472,11.472,0,0,1,11.472-11.472H175.213a11.472,11.472,0,0,1,11.472,11.472v33.613a11.472,11.472,0,0,1-11.472,11.472" transform="translate(0 -986.946)"/>
  <g id="Grupo_20933" data-name="Grupo 20933" transform="translate(54.221 24.509)">
    <path id="Caminho_17306" data-name="Caminho 17306" d="M682.538,1319.274l6.115-15.922h2.27l6.517,15.922h-2.4l-1.857-4.822h-6.658l-1.749,4.822Zm4.594-6.538h5.4l-1.662-4.41q-.76-2.009-1.13-3.3a20.3,20.3,0,0,1-.858,3.041Z" transform="translate(-682.538 -1303.08)" fill="#fff"/>
    <path id="Caminho_17307" data-name="Caminho 17307" d="M682.538,1319.274l6.115-15.922h2.27l6.517,15.922h-2.4l-1.857-4.822h-6.658l-1.749,4.822Zm4.594-6.538h5.4l-1.662-4.41q-.76-2.009-1.13-3.3a20.3,20.3,0,0,1-.858,3.041Z" transform="translate(-682.538 -1303.08)" fill="none"/>
    <path id="Caminho_17308" data-name="Caminho 17308" d="M888.163,1371.521v-15.955h1.781v1.5a4.388,4.388,0,0,1,1.423-1.32,3.908,3.908,0,0,1,1.922-.44,4.56,4.56,0,0,1,2.607.76,4.669,4.669,0,0,1,1.705,2.145,7.833,7.833,0,0,1,.576,3.036,7.712,7.712,0,0,1-.635,3.188,4.791,4.791,0,0,1-1.846,2.172,4.741,4.741,0,0,1-2.547.755,3.679,3.679,0,0,1-1.754-.413,3.989,3.989,0,0,1-1.276-1.043v5.615Zm1.77-10.123a5.016,5.016,0,0,0,.9,3.291,2.763,2.763,0,0,0,2.183,1.064,2.826,2.826,0,0,0,2.232-1.1,5.23,5.23,0,0,0,.929-3.416,5.1,5.1,0,0,0-.907-3.3,2.731,2.731,0,0,0-2.167-1.1,2.815,2.815,0,0,0-2.21,1.167,5.224,5.224,0,0,0-.961,3.394" transform="translate(-871.828 -1350.906)" fill="#fff"/>
    <path id="Caminho_17309" data-name="Caminho 17309" d="M888.163,1371.521v-15.955h1.781v1.5a4.388,4.388,0,0,1,1.423-1.32,3.908,3.908,0,0,1,1.922-.44,4.56,4.56,0,0,1,2.607.76,4.669,4.669,0,0,1,1.705,2.145,7.833,7.833,0,0,1,.576,3.036,7.712,7.712,0,0,1-.635,3.188,4.791,4.791,0,0,1-1.846,2.172,4.741,4.741,0,0,1-2.547.755,3.679,3.679,0,0,1-1.754-.413,3.989,3.989,0,0,1-1.276-1.043v5.615Zm1.77-10.123a5.016,5.016,0,0,0,.9,3.291,2.763,2.763,0,0,0,2.183,1.064,2.826,2.826,0,0,0,2.232-1.1,5.23,5.23,0,0,0,.929-3.416,5.1,5.1,0,0,0-.907-3.3,2.731,2.731,0,0,0-2.167-1.1,2.815,2.815,0,0,0-2.21,1.167A5.224,5.224,0,0,0,889.933,1361.4Z" transform="translate(-871.828 -1350.906)" fill="none"/>
    <path id="Caminho_17310" data-name="Caminho 17310" d="M1043.886,1371.521v-15.955h1.781v1.5a4.388,4.388,0,0,1,1.423-1.32,3.908,3.908,0,0,1,1.922-.44,4.56,4.56,0,0,1,2.607.76,4.669,4.669,0,0,1,1.705,2.145,7.834,7.834,0,0,1,.576,3.036,7.71,7.71,0,0,1-.635,3.188,4.79,4.79,0,0,1-1.846,2.172,4.741,4.741,0,0,1-2.547.755,3.678,3.678,0,0,1-1.754-.413,3.989,3.989,0,0,1-1.276-1.043v5.615Zm1.77-10.123a5.016,5.016,0,0,0,.9,3.291,2.763,2.763,0,0,0,2.183,1.064,2.826,2.826,0,0,0,2.232-1.1,5.23,5.23,0,0,0,.929-3.416,5.1,5.1,0,0,0-.907-3.3,2.73,2.73,0,0,0-2.167-1.1,2.815,2.815,0,0,0-2.21,1.167,5.224,5.224,0,0,0-.961,3.394" transform="translate(-1015.18 -1350.906)" fill="#fff"/>
    <path id="Caminho_17311" data-name="Caminho 17311" d="M1043.886,1371.521v-15.955h1.781v1.5a4.388,4.388,0,0,1,1.423-1.32,3.908,3.908,0,0,1,1.922-.44,4.56,4.56,0,0,1,2.607.76,4.669,4.669,0,0,1,1.705,2.145,7.834,7.834,0,0,1,.576,3.036,7.71,7.71,0,0,1-.635,3.188,4.79,4.79,0,0,1-1.846,2.172,4.741,4.741,0,0,1-2.547.755,3.678,3.678,0,0,1-1.754-.413,3.989,3.989,0,0,1-1.276-1.043v5.615Zm1.77-10.123a5.016,5.016,0,0,0,.9,3.291,2.763,2.763,0,0,0,2.183,1.064,2.826,2.826,0,0,0,2.232-1.1,5.23,5.23,0,0,0,.929-3.416,5.1,5.1,0,0,0-.907-3.3,2.73,2.73,0,0,0-2.167-1.1,2.815,2.815,0,0,0-2.21,1.167A5.224,5.224,0,0,0,1045.656,1361.4Z" transform="translate(-1015.18 -1350.906)" fill="none"/>
    <path id="Caminho_17312" data-name="Caminho 17312" d="M1271.522,1311.012l1.988-.174a4.387,4.387,0,0,0,.657,1.96,3.587,3.587,0,0,0,1.6,1.238,6.067,6.067,0,0,0,2.444.473,5.856,5.856,0,0,0,2.129-.358,2.954,2.954,0,0,0,1.374-.983,2.28,2.28,0,0,0,.451-1.363,2.073,2.073,0,0,0-.435-1.309,3.219,3.219,0,0,0-1.434-.939,28.037,28.037,0,0,0-2.835-.777,14.463,14.463,0,0,1-3.074-.994,4.306,4.306,0,0,1-1.7-1.483,3.633,3.633,0,0,1-.559-1.982,4.046,4.046,0,0,1,.684-2.254,4.238,4.238,0,0,1,2-1.591,7.58,7.58,0,0,1,2.922-.543,7.983,7.983,0,0,1,3.123.57,4.5,4.5,0,0,1,2.08,1.678,4.821,4.821,0,0,1,.782,2.509l-2.02.152a3.26,3.26,0,0,0-1.1-2.281,4.291,4.291,0,0,0-2.775-.771,4.453,4.453,0,0,0-2.786.7,2.1,2.1,0,0,0-.874,1.689,1.81,1.81,0,0,0,.619,1.412,8.381,8.381,0,0,0,3.177,1.135,21.031,21.031,0,0,1,3.524,1.016,4.829,4.829,0,0,1,2.053,1.624,3.957,3.957,0,0,1,.663,2.265,4.332,4.332,0,0,1-.728,2.395,4.793,4.793,0,0,1-2.091,1.749,7.285,7.285,0,0,1-3.068.625,9.161,9.161,0,0,1-3.622-.63,5.071,5.071,0,0,1-2.292-1.9,5.373,5.373,0,0,1-.874-2.862" transform="translate(-1224.733 -1299.934)" fill="#fff"/>
    <path id="Caminho_17313" data-name="Caminho 17313" d="M1271.522,1311.012l1.988-.174a4.387,4.387,0,0,0,.657,1.96,3.587,3.587,0,0,0,1.6,1.238,6.067,6.067,0,0,0,2.444.473,5.856,5.856,0,0,0,2.129-.358,2.954,2.954,0,0,0,1.374-.983,2.28,2.28,0,0,0,.451-1.363,2.073,2.073,0,0,0-.435-1.309,3.219,3.219,0,0,0-1.434-.939,28.037,28.037,0,0,0-2.835-.777,14.463,14.463,0,0,1-3.074-.994,4.306,4.306,0,0,1-1.7-1.483,3.633,3.633,0,0,1-.559-1.982,4.046,4.046,0,0,1,.684-2.254,4.238,4.238,0,0,1,2-1.591,7.58,7.58,0,0,1,2.922-.543,7.983,7.983,0,0,1,3.123.57,4.5,4.5,0,0,1,2.08,1.678,4.821,4.821,0,0,1,.782,2.509l-2.02.152a3.26,3.26,0,0,0-1.1-2.281,4.291,4.291,0,0,0-2.775-.771,4.453,4.453,0,0,0-2.786.7,2.1,2.1,0,0,0-.874,1.689,1.81,1.81,0,0,0,.619,1.412,8.381,8.381,0,0,0,3.177,1.135,21.031,21.031,0,0,1,3.524,1.016,4.829,4.829,0,0,1,2.053,1.624,3.957,3.957,0,0,1,.663,2.265,4.332,4.332,0,0,1-.728,2.395,4.793,4.793,0,0,1-2.091,1.749,7.285,7.285,0,0,1-3.068.625,9.161,9.161,0,0,1-3.622-.63,5.071,5.071,0,0,1-2.292-1.9A5.373,5.373,0,0,1,1271.522,1311.012Z" transform="translate(-1224.733 -1299.934)" fill="none"/>
    <path id="Caminho_17314" data-name="Caminho 17314" d="M1455.968,1321.679l.282,1.727a7.261,7.261,0,0,1-1.477.174,3.344,3.344,0,0,1-1.651-.337,1.884,1.884,0,0,1-.826-.885,7,7,0,0,1-.239-2.308v-6.636h-1.434v-1.521h1.434v-2.856l1.944-1.173v4.029h1.966v1.521H1454v6.745a3.4,3.4,0,0,0,.1,1.075.813.813,0,0,0,.337.38,1.3,1.3,0,0,0,.668.141,6.346,6.346,0,0,0,.858-.076" transform="translate(-1389.607 -1307.234)" fill="#fff"/>
    <path id="Caminho_17315" data-name="Caminho 17315" d="M1455.968,1321.679l.282,1.727a7.261,7.261,0,0,1-1.477.174,3.344,3.344,0,0,1-1.651-.337,1.884,1.884,0,0,1-.826-.885,7,7,0,0,1-.239-2.308v-6.636h-1.434v-1.521h1.434v-2.856l1.944-1.173v4.029h1.966v1.521H1454v6.745a3.4,3.4,0,0,0,.1,1.075.813.813,0,0,0,.337.38,1.3,1.3,0,0,0,.668.141A6.346,6.346,0,0,0,1455.968,1321.679Z" transform="translate(-1389.607 -1307.234)" fill="none"/>
    <path id="Caminho_17316" data-name="Caminho 17316" d="M1532.792,1361.333a5.945,5.945,0,0,1,1.781-4.746,5.367,5.367,0,0,1,3.628-1.282,5.175,5.175,0,0,1,3.888,1.559,5.931,5.931,0,0,1,1.51,4.306,7.63,7.63,0,0,1-.668,3.5,4.727,4.727,0,0,1-1.944,1.982,5.66,5.66,0,0,1-2.786.706,5.184,5.184,0,0,1-3.916-1.553,6.2,6.2,0,0,1-1.493-4.475m2.009,0a4.913,4.913,0,0,0,.967,3.318,3.219,3.219,0,0,0,4.855-.005,5.03,5.03,0,0,0,.967-3.378,4.766,4.766,0,0,0-.972-3.242,3.223,3.223,0,0,0-4.85-.005,4.89,4.89,0,0,0-.967,3.313" transform="translate(-1465.247 -1350.906)" fill="#fff"/>
    <path id="Caminho_17317" data-name="Caminho 17317" d="M1532.792,1361.333a5.945,5.945,0,0,1,1.781-4.746,5.367,5.367,0,0,1,3.628-1.282,5.175,5.175,0,0,1,3.888,1.559,5.931,5.931,0,0,1,1.51,4.306,7.63,7.63,0,0,1-.668,3.5,4.727,4.727,0,0,1-1.944,1.982,5.66,5.66,0,0,1-2.786.706,5.184,5.184,0,0,1-3.916-1.553A6.2,6.2,0,0,1,1532.792,1361.333Zm2.009,0a4.913,4.913,0,0,0,.967,3.318,3.219,3.219,0,0,0,4.855-.005,5.03,5.03,0,0,0,.967-3.378,4.766,4.766,0,0,0-.972-3.242,3.223,3.223,0,0,0-4.85-.005A4.89,4.89,0,0,0,1534.8,1361.333Z" transform="translate(-1465.247 -1350.906)" fill="none"/>
    <path id="Caminho_17318" data-name="Caminho 17318" d="M1697.4,1367.1v-11.534h1.76v1.749a4.773,4.773,0,0,1,1.244-1.618,2.17,2.17,0,0,1,1.254-.391,3.816,3.816,0,0,1,2.01.63l-.674,1.814a2.8,2.8,0,0,0-1.434-.424,1.862,1.862,0,0,0-1.151.385,2.088,2.088,0,0,0-.728,1.07,7.614,7.614,0,0,0-.326,2.281v6.039Z" transform="translate(-1616.78 -1350.906)" fill="#fff"/>
    <path id="Caminho_17319" data-name="Caminho 17319" d="M1697.4,1367.1v-11.534h1.76v1.749a4.773,4.773,0,0,1,1.244-1.618,2.17,2.17,0,0,1,1.254-.391,3.816,3.816,0,0,1,2.01.63l-.674,1.814a2.8,2.8,0,0,0-1.434-.424,1.862,1.862,0,0,0-1.151.385,2.088,2.088,0,0,0-.728,1.07,7.614,7.614,0,0,0-.326,2.281v6.039Z" transform="translate(-1616.78 -1350.906)" fill="none"/>
    <path id="Caminho_17320" data-name="Caminho 17320" d="M1791.262,1363.386l2.02.25a4.929,4.929,0,0,1-1.77,2.748,6,6,0,0,1-7.315-.581,6.09,6.09,0,0,1-1.483-4.372,6.375,6.375,0,0,1,1.5-4.518,5.075,5.075,0,0,1,3.888-1.608,4.931,4.931,0,0,1,3.78,1.575,6.257,6.257,0,0,1,1.466,4.431q0,.174-.011.521h-8.6a4.431,4.431,0,0,0,1.075,2.911,3.2,3.2,0,0,0,2.411,1.01,2.99,2.99,0,0,0,1.835-.565,3.75,3.75,0,0,0,1.206-1.8m-6.419-3.161h6.44a3.908,3.908,0,0,0-.739-2.183,3,3,0,0,0-2.422-1.13,3.106,3.106,0,0,0-2.265.9,3.568,3.568,0,0,0-1.015,2.411" transform="translate(-1695.315 -1350.906)" fill="#fff"/>
    <path id="Caminho_17321" data-name="Caminho 17321" d="M1791.262,1363.386l2.02.25a4.929,4.929,0,0,1-1.77,2.748,6,6,0,0,1-7.315-.581,6.09,6.09,0,0,1-1.483-4.372,6.375,6.375,0,0,1,1.5-4.518,5.075,5.075,0,0,1,3.888-1.608,4.931,4.931,0,0,1,3.78,1.575,6.257,6.257,0,0,1,1.466,4.431q0,.174-.011.521h-8.6a4.431,4.431,0,0,0,1.075,2.911,3.2,3.2,0,0,0,2.411,1.01,2.99,2.99,0,0,0,1.835-.565A3.75,3.75,0,0,0,1791.262,1363.386Zm-6.419-3.161h6.44a3.908,3.908,0,0,0-.739-2.183,3,3,0,0,0-2.422-1.13,3.106,3.106,0,0,0-2.265.9A3.568,3.568,0,0,0,1784.843,1360.225Z" transform="translate(-1695.315 -1350.906)" fill="none"/>
  </g>
  <g id="Grupo_20934" data-name="Grupo 20934" transform="translate(14.559 10.092)">
    <path id="Caminho_17322" data-name="Caminho 17322" d="M211.418,1230.1a7.99,7.99,0,0,0-3.2,10,7.619,7.619,0,0,0,4.139,4.031,18.348,18.348,0,0,1-1.063,2.681,22.214,22.214,0,0,1-3.573,5.173,5.638,5.638,0,0,1-2.419,1.5,5.183,5.183,0,0,1-2.926-.237,16.745,16.745,0,0,0-2.532-.923,7.056,7.056,0,0,0-3.308.146c-.743.259-2.284.878-2.284.878a4.055,4.055,0,0,1-3.995-.495c-1.91-1.388-4.1-4.985-4.49-5.773a22.3,22.3,0,0,1-2.315-7.1,19.064,19.064,0,0,1-.149-3.851,10.492,10.492,0,0,1,3.673-7.64,8.039,8.039,0,0,1,1.345-.866,7.829,7.829,0,0,1,6.054-.608c2.285.79,2.971,1.193,3.736,1.182a2.581,2.581,0,0,0,.517-.087,8.741,8.741,0,0,0,1.339-.442,15.445,15.445,0,0,1,1.469-.565,13.264,13.264,0,0,1,1.374-.385c.235-.051.473-.094.712-.125a5.52,5.52,0,0,1,.822-.051,11.657,11.657,0,0,1,1.429.113,8.75,8.75,0,0,1,1.305.293,10.639,10.639,0,0,1,1.145.425,7.357,7.357,0,0,1,2.534,1.882Z" transform="translate(-183.264 -1217.917)" fill="#fff"/>
    <path id="Caminho_17323" data-name="Caminho 17323" d="M371.913,1117.917a7.005,7.005,0,0,0-3.112.965c-1.929,1.083-4.495,3.795-4.067,7.238a3.97,3.97,0,0,0,2.193-.282c.145-.055.293-.124.451-.191a7.923,7.923,0,0,0,4.17-4.606,6.765,6.765,0,0,0,.365-3.125" transform="translate(-350.274 -1117.917)" fill="#fff"/>
  </g>
  <text id="Baixar_na" data-name="Baixar na" transform="translate(56.947 19.488)" fill="#fff" font-size="12" font-family="OpenSans, Open Sans"><tspan x="0" y="0">Baixar na</tspan></text>
</svg>
